<svg xmlns="http://www.w3.org/2000/svg" xmlns:xlink="http://www.w3.org/1999/xlink" width="14px" height="14px" viewBox="0 0 14 14" version="1.1">
<path style=" stroke:none;fill-rule:evenodd;fill:rgb(14.509804%,82.745098%,40%);fill-opacity:1;" d="M 6.855469 0.761719 C 10.203125 0.761719 12.914062 3.457031 12.914062 6.789062 C 12.914062 10.117188 10.222656 12.882812 6.855469 12.816406 C 5.621094 12.792969 4.773438 12.703125 3.851562 12.023438 C 3.148438 11.503906 0.371094 14 1.746094 9.910156 C 1.160156 8.984375 0.8125 7.921875 0.796875 6.789062 C 0.761719 3.472656 3.511719 0.761719 6.855469 0.761719 Z M 6.855469 0.761719 "/>
<path style="fill-rule:evenodd;fill:rgb(99.607843%,99.607843%,99.607843%);fill-opacity:1;stroke-width:0.79;stroke-linecap:butt;stroke-linejoin:miter;stroke:rgb(14.509804%,82.745098%,40%);stroke-opacity:1;stroke-miterlimit:22.926;" d="M 60.181516 10.586239 C 53.603822 4.017121 44.880355 0.39 35.595378 0.39 C 16.443859 0.39 0.861942 15.986618 0.841888 35.129754 C 0.841888 41.255558 2.446204 47.220156 5.494404 52.499632 L 0.561133 70.49418 L 18.970656 65.658019 C 24.064358 68.438811 29.779733 69.88966 35.575324 69.88966 L 35.595378 69.88966 C 54.746896 69.88966 70.328813 54.313192 70.348867 35.149905 C 70.348867 25.860446 66.739156 17.155357 60.181516 10.586239 Z M 23.944035 51.955564 C 24.184682 52.096618 24.686031 52.096618 25.84916 52.096618 C 30.742323 52.096618 34.953651 52.076468 37.961743 52.076468 C 51.979452 52.076468 51.618481 37.326177 45.06084 35.472316 C 46.02343 33.77966 50.39519 30.575703 47.687907 23.986434 C 45.000678 17.457617 33.509767 18.928616 25.64862 18.928616 C 22.720744 18.928616 23.161931 21.084738 23.181985 24.429749 C 23.202039 29.729375 23.181985 44.076652 23.181985 50.262907 C 23.181985 51.512249 23.56301 51.713756 23.944035 51.955564 Z M 30.000327 46.535033 L 37.139531 46.535033 C 40.167677 46.535033 42.87496 45.124487 42.794744 42.101886 C 42.754636 39.260642 40.869566 38.31356 38.222445 38.051602 C 35.735755 38.091903 32.868041 38.091903 30.000327 38.091903 Z M 30.000327 32.389263 C 35.294568 32.308661 37.320017 32.59077 40.207785 31.865346 C 42.173072 30.757059 43.035392 26.585871 40.207785 25.175324 C 38.242499 24.187941 32.426854 24.510352 30.000327 24.611105 Z M 35.595378 64.025815 L 35.575324 64.025815 C 30.401405 64.025815 25.327757 62.635419 20.895835 59.995681 L 19.832976 59.37101 L 8.903575 62.232405 L 11.811397 51.592852 L 11.129563 50.484565 C 8.241795 45.890212 6.717695 40.570435 6.717695 35.129754 C 6.717695 19.210725 19.672544 6.253845 35.615432 6.253845 C 43.316147 6.253845 50.575676 9.276445 56.010295 14.737277 C 61.485022 20.177958 64.47306 27.432199 64.47306 35.149905 C 64.47306 51.068934 51.518211 64.025815 35.595378 64.025815 Z M 35.595378 64.025815 " transform="matrix(0.194787,0,0,0.193852,0.0938235,-0.0756023)"/>
<path style=" stroke:none;fill-rule:evenodd;fill:rgb(99.607843%,99.607843%,99.607843%);fill-opacity:1;" d="M 4.730469 9.988281 C 4.777344 10.019531 4.878906 10.019531 5.101562 10.019531 C 6.054688 10.015625 6.875 10.015625 7.460938 10.015625 C 10.191406 10.015625 10.121094 7.152344 8.84375 6.796875 C 9.03125 6.46875 9.882812 5.847656 9.355469 4.566406 C 8.832031 3.300781 6.59375 3.589844 5.0625 3.589844 C 4.492188 3.589844 4.578125 4.007812 4.582031 4.65625 C 4.585938 5.683594 4.582031 8.460938 4.582031 9.664062 C 4.582031 9.90625 4.65625 9.945312 4.730469 9.988281 Z M 5.914062 8.941406 L 7.300781 8.941406 C 7.890625 8.9375 8.417969 8.664062 8.402344 8.078125 C 8.394531 7.527344 8.027344 7.347656 7.511719 7.296875 C 7.027344 7.300781 6.472656 7.300781 5.914062 7.300781 Z M 5.914062 6.195312 C 6.941406 6.183594 7.335938 6.234375 7.898438 6.097656 C 8.28125 5.878906 8.449219 5.070312 7.898438 4.796875 C 7.515625 4.609375 6.382812 4.671875 5.914062 4.691406 Z M 5.914062 6.195312 "/>
</svg>